<svg width="1000" height="860" viewBox="0 0 1000 860" fill="none" xmlns="http://www.w3.org/2000/svg">
<path fill-rule="evenodd" clip-rule="evenodd" d="M634.034 57.4114C627.954 64.1649 613.112 73.387 615.419 77.141C617.109 79.8897 618.825 79.9694 625.331 77.6049C635.112 74.0478 664.338 77.2253 664.338 77.2253C664.338 77.2253 687.028 85.7316 695.498 94.5026C699.627 98.7769 705.58 107.15 708.725 113.113C714.925 124.863 717.711 126.18 722.967 119.853C729.771 111.663 731.447 104.181 729.398 91.1493C727.939 81.8698 726.108 78.5014 726.108 78.5014C726.108 78.5014 724.934 75.742 724.923 74.0853C724.913 72.5129 721.282 67.3881 716.853 62.692C709.401 54.788 720.571 37.4651 724.923 36.3215C727.51 35.642 722.606 52.986 727.986 54.5794C735.471 56.7986 741.26 60.9264 741.26 60.9264C741.26 60.9264 742.489 60.2526 748.375 70.6429C753.053 78.9031 754.014 83.803 753.997 99.3487C753.988 109.659 753.133 123.368 752.095 129.812C750.237 141.346 750.275 141.451 754.475 136.53C767.706 121.034 796.1 123.401 805.706 140.802C810.818 150.061 809.23 158.745 798.209 181.829L787.557 204.137L782.475 199.383C755.822 174.45 689.89 187.277 684.058 218.53C682.088 229.085 684.394 233.274 689.627 228.658C696.874 222.263 713.412 215.186 729.785 211.467C750.028 206.872 768.718 209.778 787.298 220.405C800.063 227.704 803.072 226.148 795.953 215.931C792.575 211.081 792.708 210.703 798.284 209.297C814.622 205.176 823.373 216.698 823.783 242.877C823.909 250.931 824.729 257.523 825.608 257.523C826.487 257.523 830.153 256.396 833.76 255.018C845.105 250.683 881.396 252.129 895.631 257.483C911.014 263.269 918.564 270.878 926.727 288.818C936.408 310.096 932.51 327.572 915.184 340.566C909.736 344.652 905.445 345.376 887.356 345.269C874.846 345.194 859.028 343.378 849.24 340.891C834.925 337.259 830.806 337.058 820.683 339.499C794.89 345.719 788.997 361.025 801.869 388.374C810.631 406.992 810.624 412.342 801.836 422.404C789.13 436.954 780.461 438.978 735.433 437.921C713.638 437.411 682.338 436.947 665.876 436.89C637.174 436.792 635.767 437.014 631.494 442.32C629.046 445.361 627.042 451.283 627.042 455.478C627.042 471.208 643.729 483.574 677.186 492.636C726.669 506.037 732.389 505.515 534.384 505.723L354.314 505.915V484.945C354.314 464.359 354.454 463.839 361.89 456.607C372.398 446.39 386.109 440.415 399.186 440.354C405.277 440.326 410.258 439.723 410.258 439.013C410.258 438.306 408.62 434.54 406.615 430.645C401.321 420.353 401.822 396.079 407.559 384.843C412.405 375.355 422.687 367.926 434.573 365.332C441.354 363.851 440.552 363.212 419.214 353.086C387.489 338.033 369.913 325.346 359.361 309.887C354.897 303.347 354.314 299.347 354.314 275.206C354.314 243.414 356.011 238.662 373.48 221.555C388.286 207.053 406.69 198.703 427.263 197.147C441.732 196.055 443.398 195.38 446.494 189.36C448.359 185.735 449.895 180.343 449.909 177.381C449.941 169.299 460.484 148.12 465.932 145.189C468.622 143.741 474.685 143.258 479.818 144.085C490.545 145.81 492.918 143.33 490.897 132.5C488.338 118.791 472.237 113.348 455.293 120.464C446.268 124.256 444.011 126.529 433.585 142.339L426.871 152.523L425.368 144.469C423.818 136.165 426.383 122.259 432.445 109.894C441.761 90.8906 473.195 74.3313 473.195 74.3313C476.401 72.7027 486.443 71.3412 495.51 71.3014C509.599 71.2381 513.387 72.152 521.526 77.5675C526.767 81.0543 533.44 88.1733 536.354 93.3849C539.268 98.5988 542.373 102.864 543.254 102.864C544.135 102.864 545.554 97.8559 546.408 91.7328C547.258 85.6097 550.279 73.7478 553.116 65.3704L558.277 50.1388L621.213 14.0583C654.7 13.4326 637.717 53.32 634.034 57.4114ZM551.284 166.007C537.286 172.364 512.822 195.526 512.822 202.422C512.822 204.794 509.536 205.225 498.881 204.255C467.526 201.396 432.018 219.296 419.121 244.461C413.2 256.016 414.391 270.341 422.186 281.329L427.741 289.158L429.049 279.785C431.846 259.752 446.655 243.491 466.452 238.716C482.366 234.88 490.505 237.499 503.729 250.723C520.275 267.269 528.123 266.475 534.436 247.616C543.354 220.979 564.829 198.699 589.352 190.642C601.058 186.797 602.592 186.788 615.871 190.499C623.622 192.667 630.482 193.918 631.114 193.283C633.119 191.268 629.643 181.173 624.825 175.012C616.153 163.931 592.321 156.055 574.594 158.414C569.466 159.096 558.976 162.513 551.284 166.007ZM623.545 270.444C618.417 272.898 608.158 280.959 600.75 288.357C587.419 301.667 587.16 301.796 576.237 300.495C561.004 298.681 549.021 303.972 543.897 314.775C539.228 324.617 540.289 326.447 548.781 323.202C559.265 319.195 577.475 320.397 590.3 325.943C601.932 330.972 602.27 330.988 604.72 326.628C606.1 324.169 612.072 317.222 617.993 311.188C635.38 293.465 661.622 288.094 685.764 297.315C697.718 301.88 701.482 301.1 701.599 294.03C701.673 289.524 680.722 271.981 670.995 268.408C657.972 263.623 635.82 264.572 623.545 270.444Z" fill="#B5B5B5"/>
<path fill-rule="evenodd" clip-rule="evenodd" d="M233.768 746.883C205.489 728.786 172.25 697.775 150.704 669.389C122.18 631.807 96.4442 574.13 89.3109 531.798C86.9901 518.02 84.9138 513.89 73.1847 499.699C18.6207 433.679 1.30505 339.343 30.5384 267.354C40.9494 241.714 50.3468 231.716 72.1884 223.048C94.2356 214.299 103.87 215.256 135.981 229.388L162.406 241.017L173.287 230.42C179.274 224.592 188.704 216.796 194.244 213.098C205.851 205.345 237.34 194.457 252.025 193.118C267.87 191.672 289.971 195.37 307.679 202.428C359.814 223.21 391.303 277.749 383.78 334.24L381.677 350.02L539.087 426.641L696.494 503.263L707.382 492.669C723.474 477.014 736.813 468.931 758.292 461.827C843.464 433.646 929.451 505.396 917.792 594.912L915.709 610.901L939.877 624.208C968.407 639.917 974.528 646.748 981.226 670.339C988.614 696.369 982.431 718.011 958.352 750.398C913.832 810.28 843.638 839.483 769.94 828.781C759.278 827.233 728.115 818.837 700.689 810.122L650.824 794.275L606.042 810.038C543.755 831.962 496.781 837.516 437.915 829.916C394.429 824.303 381.364 819.804 311.848 786.513C276.544 769.606 241.408 751.774 233.768 746.883ZM400.11 773.938C456.315 789.958 515.532 789.357 574.348 772.163L589.466 767.744L471.308 710.292L353.151 652.841L318.697 684.013C299.746 701.157 283.584 716.541 282.779 718.198C281.532 720.763 289.143 724.854 333.685 745.572C362.49 758.97 392.382 771.734 400.11 773.938ZM273.397 662.143C291.674 645.419 306.897 631.183 307.225 630.507C307.554 629.831 270.343 610.913 224.534 588.462L141.246 547.647L149.82 571.395C163.422 609.059 184.401 640.982 215.817 671.81C225.479 681.29 234.91 689.836 236.774 690.8C239.257 692.082 249.068 684.403 273.397 662.143ZM258.425 394.569C289.14 395.547 316.323 378.919 330.197 350.663C336.951 336.905 337.975 332.492 337.929 317.364C337.814 280.599 312.484 249.257 277.119 242.126C232.882 233.207 190.002 264.858 185.702 309.605C184.25 324.704 190.449 350.452 198.013 360.757C212.227 380.113 236.827 393.879 258.425 394.569ZM784.089 655.861C790.604 656.937 803.564 656.154 812.889 654.122C836.834 648.905 853.066 635.722 864.182 612.464C870.934 598.338 872.073 593.525 872.027 579.295C871.971 560.84 865.64 543.993 852.964 528.573C840.773 513.738 815.948 502.436 796.177 502.716C754.307 503.307 719.717 536.804 719.375 577.088C719.035 617.539 745.245 649.441 784.089 655.861Z" fill="#1A365D"/>
<path d="M292.836 747.835H429.336M517.98 695.335L487.669 747.835H458.503M429.336 747.835L417.669 640.502M429.336 747.835H458.503M458.503 747.835L473.086 777.002M487.669 806.169L473.086 777.002M473.086 777.002L568.169 737.335" stroke="#1A365D" stroke-width="4.66667"/>
</svg>
