<svg width="70" height="70" viewBox="0 0 70 70" fill="none" xmlns="http://www.w3.org/2000/svg">
<path d="M33.8438 8.71875C34.0503 8.08305 34.9497 8.08304 35.1562 8.71875L39.6572 22.5713C40.3038 24.5614 42.1585 25.9092 44.251 25.9092H58.8174C59.4855 25.9095 59.7633 26.7644 59.2227 27.1572L47.4385 35.7188C45.7456 36.9487 45.037 39.1291 45.6836 41.1191L50.1846 54.9717C50.3911 55.6074 49.6638 56.1361 49.123 55.7432L37.3389 47.1816C35.6461 45.9519 33.3539 45.9519 31.6611 47.1816L19.877 55.7432C19.3362 56.136 18.6089 55.6074 18.8154 54.9717L23.3164 41.1191C23.963 39.1291 23.2544 36.9487 21.5615 35.7188L9.77734 27.1572C9.23668 26.7644 9.51443 25.9095 10.1826 25.9092H24.749C26.8415 25.9092 28.6962 24.5614 29.3428 22.5713L33.8438 8.71875Z" fill="#3F76C2" stroke="#1A365D" stroke-width="4.14"/>
</svg>
